<mxfile host="Electron" modified="2024-05-12T08:45:14.988Z" agent="Mozilla/5.0 (Windows NT 10.0; Win64; x64) AppleWebKit/537.36 (KHTML, like Gecko) draw.io/23.1.5 Chrome/120.0.6099.109 Electron/28.1.0 Safari/537.36" etag="HfKAeGUlm6kZMXr-hlQU" version="23.1.5" type="device">
  <diagram name="Страница — 1" id="3ngHZvdrytW89F6JeoqI">
    <mxGraphModel dx="1434" dy="2013" grid="1" gridSize="10" guides="1" tooltips="1" connect="1" arrows="1" fold="1" page="1" pageScale="1" pageWidth="827" pageHeight="1169" math="0" shadow="0">
      <root>
        <mxCell id="0" />
        <mxCell id="1" parent="0" />
        <mxCell id="jCT3Bc8jbTBr8M0klGkr-1" value="Start" style="ellipse;whiteSpace=wrap;html=1;fontSize=26;fontFamily=Helvetica;" parent="1" vertex="1">
          <mxGeometry x="495" y="-958" width="120" height="80" as="geometry" />
        </mxCell>
        <mxCell id="jCT3Bc8jbTBr8M0klGkr-2" value="" style="endArrow=classic;html=1;rounded=0;exitX=0.5;exitY=1;exitDx=0;exitDy=0;entryX=0.5;entryY=0;entryDx=0;entryDy=0;" parent="1" source="jCT3Bc8jbTBr8M0klGkr-1" target="NCkpswVvDA3_mtFuB1Wg-1" edge="1">
          <mxGeometry width="50" height="50" relative="1" as="geometry">
            <mxPoint x="565" y="-637" as="sourcePoint" />
            <mxPoint x="555" y="-827" as="targetPoint" />
          </mxGeometry>
        </mxCell>
        <mxCell id="JU1snuM1A_5mMVldpm_u-1" value="&lt;br style=&quot;border-color: var(--border-color);&quot;&gt;Итоговое домашнее задание №:&amp;nbsp;&lt;br style=&quot;border-color: var(--border-color);&quot;&gt;[“Hello”, “2”, “world”, “:-)”] → [“2”, “:-)”]&amp;nbsp;&lt;br&gt;[“1234”, “1567”, “-2”, “computer science”] → [“-2”]&lt;br&gt;[“Russia”, “Denmark”, “Kazan”] → []" style="text;html=1;spacing=5;spacingTop=-20;whiteSpace=wrap;overflow=hidden;rounded=0;fillColor=#1ba1e2;strokeColor=#006EAF;fontColor=#ffffff;align=center;fontStyle=1;fontSize=26;" parent="1" vertex="1">
          <mxGeometry x="24" y="-1140" width="780" height="161" as="geometry" />
        </mxCell>
        <mxCell id="JxUJZMgpZZbEwyPVfIzD-1" value="Information" style="swimlane;whiteSpace=wrap;html=1;" parent="1" vertex="1">
          <mxGeometry x="14" y="-947" width="116" height="380" as="geometry">
            <mxRectangle x="14" y="100" width="140" height="30" as="alternateBounds" />
          </mxGeometry>
        </mxCell>
        <mxCell id="JxUJZMgpZZbEwyPVfIzD-2" value="start / end" style="ellipse;whiteSpace=wrap;html=1;" parent="JxUJZMgpZZbEwyPVfIzD-1" vertex="1">
          <mxGeometry x="20" y="36" width="71" height="40" as="geometry" />
        </mxCell>
        <mxCell id="JxUJZMgpZZbEwyPVfIzD-3" value="data &lt;br&gt;input" style="shape=parallelogram;perimeter=parallelogramPerimeter;whiteSpace=wrap;html=1;fixedSize=1;" parent="JxUJZMgpZZbEwyPVfIzD-1" vertex="1">
          <mxGeometry x="15" y="95" width="76" height="30" as="geometry" />
        </mxCell>
        <mxCell id="JxUJZMgpZZbEwyPVfIzD-4" value="process" style="rounded=0;whiteSpace=wrap;html=1;" parent="JxUJZMgpZZbEwyPVfIzD-1" vertex="1">
          <mxGeometry x="21" y="151" width="69" height="40" as="geometry" />
        </mxCell>
        <mxCell id="JxUJZMgpZZbEwyPVfIzD-5" value="result" style="shape=document;whiteSpace=wrap;html=1;boundedLbl=1;" parent="JxUJZMgpZZbEwyPVfIzD-1" vertex="1">
          <mxGeometry x="20" y="309" width="71" height="40" as="geometry" />
        </mxCell>
        <mxCell id="JxUJZMgpZZbEwyPVfIzD-6" value="if / else" style="rhombus;whiteSpace=wrap;html=1;" parent="JxUJZMgpZZbEwyPVfIzD-1" vertex="1">
          <mxGeometry x="21" y="215" width="69" height="65" as="geometry" />
        </mxCell>
        <mxCell id="NCkpswVvDA3_mtFuB1Wg-1" value="array1 = [“Hello”, “2”, “world”, “:-)”] → [“2”, “:-)”]&lt;br style=&quot;box-sizing: border-box; color: rgb(44, 45, 48); font-family: Onest, Roboto, &amp;quot;San Francisco&amp;quot;, &amp;quot;Helvetica Neue&amp;quot;, Helvetica, Arial; font-size: 15px; text-align: start; background-color: rgb(255, 255, 255);&quot;&gt;array2 =&amp;nbsp;&lt;span style=&quot;color: rgb(44, 45, 48); font-family: Onest, Roboto, &amp;quot;San Francisco&amp;quot;, &amp;quot;Helvetica Neue&amp;quot;, Helvetica, Arial; font-size: 15px; text-align: start; background-color: rgb(255, 255, 255);&quot;&gt;[“1234”, “1567”, “-2”, “computer science”] → [“-2”]&lt;/span&gt;&lt;br style=&quot;box-sizing: border-box; color: rgb(44, 45, 48); font-family: Onest, Roboto, &amp;quot;San Francisco&amp;quot;, &amp;quot;Helvetica Neue&amp;quot;, Helvetica, Arial; font-size: 15px; text-align: start; background-color: rgb(255, 255, 255);&quot;&gt;array3 =&amp;nbsp;&lt;span style=&quot;color: rgb(44, 45, 48); font-family: Onest, Roboto, &amp;quot;San Francisco&amp;quot;, &amp;quot;Helvetica Neue&amp;quot;, Helvetica, Arial; font-size: 15px; text-align: start; background-color: rgb(255, 255, 255);&quot;&gt;[“Russia”, “Denmark”, “Kazan”] → []&lt;br&gt;arrayController = [&quot;2&quot;, &quot;-2&quot;, &quot;:-)&quot;]&lt;br&gt;&lt;/span&gt;" style="shape=parallelogram;perimeter=parallelogramPerimeter;whiteSpace=wrap;html=1;fixedSize=1;fontSize=14;" parent="1" vertex="1">
          <mxGeometry x="320" y="-860" width="470" height="110" as="geometry" />
        </mxCell>
        <mxCell id="NCkpswVvDA3_mtFuB1Wg-3" value="" style="endArrow=classic;html=1;rounded=0;exitX=0.5;exitY=1;exitDx=0;exitDy=0;entryX=0.5;entryY=0;entryDx=0;entryDy=0;" parent="1" source="NCkpswVvDA3_mtFuB1Wg-1" target="NCkpswVvDA3_mtFuB1Wg-2" edge="1">
          <mxGeometry width="50" height="50" relative="1" as="geometry">
            <mxPoint x="555" y="-767" as="sourcePoint" />
            <mxPoint x="555" y="-547" as="targetPoint" />
          </mxGeometry>
        </mxCell>
        <mxCell id="NCkpswVvDA3_mtFuB1Wg-2" value="i = 0, j = 0,&amp;nbsp;&lt;br&gt;result = &quot;&quot;" style="rounded=0;whiteSpace=wrap;html=1;" parent="1" vertex="1">
          <mxGeometry x="494.99" y="-730" width="120" height="60" as="geometry" />
        </mxCell>
        <mxCell id="NCkpswVvDA3_mtFuB1Wg-5" value="" style="endArrow=classic;html=1;rounded=0;exitX=0.5;exitY=1;exitDx=0;exitDy=0;entryX=0.5;entryY=0;entryDx=0;entryDy=0;" parent="1" source="NCkpswVvDA3_mtFuB1Wg-2" target="NCkpswVvDA3_mtFuB1Wg-4" edge="1">
          <mxGeometry width="50" height="50" relative="1" as="geometry">
            <mxPoint x="555" y="-657" as="sourcePoint" />
            <mxPoint x="555" y="-547" as="targetPoint" />
          </mxGeometry>
        </mxCell>
        <mxCell id="NCkpswVvDA3_mtFuB1Wg-4" value="i &amp;lt;&amp;nbsp;&amp;nbsp;array.length" style="rhombus;whiteSpace=wrap;html=1;" parent="1" vertex="1">
          <mxGeometry x="480" y="-647" width="150" height="80" as="geometry" />
        </mxCell>
        <mxCell id="UQAt2kH8SCvdrtAHSddn-1" value="j &amp;lt;&amp;nbsp;arrayController.length" style="rhombus;whiteSpace=wrap;html=1;" parent="1" vertex="1">
          <mxGeometry x="180" y="-510" width="200" height="105" as="geometry" />
        </mxCell>
        <mxCell id="UQAt2kH8SCvdrtAHSddn-3" value="i = i + 1" style="rounded=0;whiteSpace=wrap;html=1;" parent="1" vertex="1">
          <mxGeometry x="484" y="-487.5" width="142" height="60" as="geometry" />
        </mxCell>
        <mxCell id="UQAt2kH8SCvdrtAHSddn-19" value="j = j + 1" style="whiteSpace=wrap;html=1;" parent="1" vertex="1">
          <mxGeometry x="339.94" y="-130" width="120" height="40" as="geometry" />
        </mxCell>
        <mxCell id="K4VvaAnOZlt_cPw1KZeV-6" value="" style="endArrow=classic;html=1;rounded=0;exitX=1;exitY=0.5;exitDx=0;exitDy=0;entryX=0.5;entryY=0;entryDx=0;entryDy=0;" parent="1" source="NCkpswVvDA3_mtFuB1Wg-4" target="K4VvaAnOZlt_cPw1KZeV-12" edge="1">
          <mxGeometry width="50" height="50" relative="1" as="geometry">
            <mxPoint x="604" y="-607" as="sourcePoint" />
            <mxPoint x="720" y="-427" as="targetPoint" />
            <Array as="points">
              <mxPoint x="710" y="-607" />
            </Array>
          </mxGeometry>
        </mxCell>
        <mxCell id="9NQiDWjdbilmGoPrn_O9-1" value="No" style="edgeLabel;html=1;align=center;verticalAlign=middle;resizable=0;points=[];" parent="K4VvaAnOZlt_cPw1KZeV-6" vertex="1" connectable="0">
          <mxGeometry x="-0.7111" relative="1" as="geometry">
            <mxPoint as="offset" />
          </mxGeometry>
        </mxCell>
        <mxCell id="K4VvaAnOZlt_cPw1KZeV-12" value="result" style="shape=document;whiteSpace=wrap;html=1;boundedLbl=1;" parent="1" vertex="1">
          <mxGeometry x="650" y="-130" width="120" height="80" as="geometry" />
        </mxCell>
        <mxCell id="MvEETtaLNXXJoNH26J3G-1" value="arrayController[j] == array[i]" style="rhombus;whiteSpace=wrap;html=1;" parent="1" vertex="1">
          <mxGeometry x="304.87" y="-340" width="190.13" height="142" as="geometry" />
        </mxCell>
        <mxCell id="MvEETtaLNXXJoNH26J3G-4" value="result = result + array[i]&lt;br&gt;j = j + 1" style="rounded=0;whiteSpace=wrap;html=1;" parent="1" vertex="1">
          <mxGeometry x="50" y="-299" width="142" height="60" as="geometry" />
        </mxCell>
        <mxCell id="kYggavRtZH8T-B_MCpKh-6" value="" style="endArrow=classic;html=1;rounded=0;exitX=0;exitY=0.5;exitDx=0;exitDy=0;entryX=0.5;entryY=0;entryDx=0;entryDy=0;" edge="1" parent="1" source="NCkpswVvDA3_mtFuB1Wg-4" target="UQAt2kH8SCvdrtAHSddn-1">
          <mxGeometry width="50" height="50" relative="1" as="geometry">
            <mxPoint x="390" y="-380" as="sourcePoint" />
            <mxPoint x="440" y="-430" as="targetPoint" />
            <Array as="points">
              <mxPoint x="280" y="-607" />
            </Array>
          </mxGeometry>
        </mxCell>
        <mxCell id="kYggavRtZH8T-B_MCpKh-8" value="Yes" style="edgeLabel;html=1;align=center;verticalAlign=middle;resizable=0;points=[];" vertex="1" connectable="0" parent="kYggavRtZH8T-B_MCpKh-6">
          <mxGeometry x="-0.4007" y="2" relative="1" as="geometry">
            <mxPoint as="offset" />
          </mxGeometry>
        </mxCell>
        <mxCell id="kYggavRtZH8T-B_MCpKh-7" value="" style="endArrow=classic;html=1;rounded=0;exitX=0.5;exitY=1;exitDx=0;exitDy=0;entryX=0.5;entryY=0;entryDx=0;entryDy=0;" edge="1" parent="1" source="UQAt2kH8SCvdrtAHSddn-1" target="MvEETtaLNXXJoNH26J3G-1">
          <mxGeometry width="50" height="50" relative="1" as="geometry">
            <mxPoint x="390" y="-380" as="sourcePoint" />
            <mxPoint x="440" y="-430" as="targetPoint" />
            <Array as="points">
              <mxPoint x="280" y="-380" />
              <mxPoint x="400" y="-380" />
              <mxPoint x="400" y="-360" />
            </Array>
          </mxGeometry>
        </mxCell>
        <mxCell id="kYggavRtZH8T-B_MCpKh-12" value="Yes" style="edgeLabel;html=1;align=center;verticalAlign=middle;resizable=0;points=[];" vertex="1" connectable="0" parent="kYggavRtZH8T-B_MCpKh-7">
          <mxGeometry x="-0.3333" relative="1" as="geometry">
            <mxPoint as="offset" />
          </mxGeometry>
        </mxCell>
        <mxCell id="kYggavRtZH8T-B_MCpKh-9" value="" style="endArrow=classic;html=1;rounded=0;exitX=1;exitY=0.5;exitDx=0;exitDy=0;entryX=0;entryY=0.5;entryDx=0;entryDy=0;" edge="1" parent="1" source="UQAt2kH8SCvdrtAHSddn-1" target="UQAt2kH8SCvdrtAHSddn-3">
          <mxGeometry width="50" height="50" relative="1" as="geometry">
            <mxPoint x="400" y="-370" as="sourcePoint" />
            <mxPoint x="450" y="-420" as="targetPoint" />
          </mxGeometry>
        </mxCell>
        <mxCell id="kYggavRtZH8T-B_MCpKh-10" value="No" style="edgeLabel;html=1;align=center;verticalAlign=middle;resizable=0;points=[];" vertex="1" connectable="0" parent="kYggavRtZH8T-B_MCpKh-9">
          <mxGeometry x="-0.14" relative="1" as="geometry">
            <mxPoint y="1" as="offset" />
          </mxGeometry>
        </mxCell>
        <mxCell id="kYggavRtZH8T-B_MCpKh-11" value="" style="endArrow=classic;html=1;rounded=0;entryX=0.5;entryY=1;entryDx=0;entryDy=0;exitX=0.5;exitY=0;exitDx=0;exitDy=0;" edge="1" parent="1" source="UQAt2kH8SCvdrtAHSddn-3" target="NCkpswVvDA3_mtFuB1Wg-4">
          <mxGeometry width="50" height="50" relative="1" as="geometry">
            <mxPoint x="555" y="-490" as="sourcePoint" />
            <mxPoint x="620" y="-400" as="targetPoint" />
          </mxGeometry>
        </mxCell>
        <mxCell id="kYggavRtZH8T-B_MCpKh-14" value="" style="endArrow=classic;html=1;rounded=0;exitX=0;exitY=0.5;exitDx=0;exitDy=0;entryX=1;entryY=0.5;entryDx=0;entryDy=0;" edge="1" parent="1" source="MvEETtaLNXXJoNH26J3G-1" target="MvEETtaLNXXJoNH26J3G-4">
          <mxGeometry width="50" height="50" relative="1" as="geometry">
            <mxPoint x="70" y="-140" as="sourcePoint" />
            <mxPoint x="120" y="-190" as="targetPoint" />
          </mxGeometry>
        </mxCell>
        <mxCell id="kYggavRtZH8T-B_MCpKh-16" value="Yes" style="edgeLabel;html=1;align=center;verticalAlign=middle;resizable=0;points=[];" vertex="1" connectable="0" parent="kYggavRtZH8T-B_MCpKh-14">
          <mxGeometry x="-0.1695" y="1" relative="1" as="geometry">
            <mxPoint as="offset" />
          </mxGeometry>
        </mxCell>
        <mxCell id="kYggavRtZH8T-B_MCpKh-15" value="" style="endArrow=classic;html=1;rounded=0;exitX=0.5;exitY=0;exitDx=0;exitDy=0;entryX=0;entryY=0.5;entryDx=0;entryDy=0;" edge="1" parent="1" source="MvEETtaLNXXJoNH26J3G-4" target="UQAt2kH8SCvdrtAHSddn-1">
          <mxGeometry width="50" height="50" relative="1" as="geometry">
            <mxPoint x="40" y="-350" as="sourcePoint" />
            <mxPoint x="90" y="-400" as="targetPoint" />
            <Array as="points">
              <mxPoint x="121" y="-457" />
            </Array>
          </mxGeometry>
        </mxCell>
        <mxCell id="kYggavRtZH8T-B_MCpKh-17" value="" style="endArrow=classic;html=1;rounded=0;exitX=0.5;exitY=1;exitDx=0;exitDy=0;entryX=0.5;entryY=0;entryDx=0;entryDy=0;" edge="1" parent="1" source="MvEETtaLNXXJoNH26J3G-1" target="UQAt2kH8SCvdrtAHSddn-19">
          <mxGeometry width="50" height="50" relative="1" as="geometry">
            <mxPoint x="150" y="-140" as="sourcePoint" />
            <mxPoint x="200" y="-190" as="targetPoint" />
          </mxGeometry>
        </mxCell>
        <mxCell id="kYggavRtZH8T-B_MCpKh-18" value="No" style="edgeLabel;html=1;align=center;verticalAlign=middle;resizable=0;points=[];" vertex="1" connectable="0" parent="kYggavRtZH8T-B_MCpKh-17">
          <mxGeometry x="-0.1765" y="2" relative="1" as="geometry">
            <mxPoint as="offset" />
          </mxGeometry>
        </mxCell>
        <mxCell id="kYggavRtZH8T-B_MCpKh-19" value="" style="endArrow=classic;html=1;rounded=0;exitX=0;exitY=0.5;exitDx=0;exitDy=0;entryX=0;entryY=0.5;entryDx=0;entryDy=0;" edge="1" parent="1" source="UQAt2kH8SCvdrtAHSddn-19" target="UQAt2kH8SCvdrtAHSddn-1">
          <mxGeometry width="50" height="50" relative="1" as="geometry">
            <mxPoint x="60" y="-100" as="sourcePoint" />
            <mxPoint x="180" y="-460" as="targetPoint" />
            <Array as="points">
              <mxPoint x="20" y="-110" />
              <mxPoint x="20" y="-459" />
            </Array>
          </mxGeometry>
        </mxCell>
      </root>
    </mxGraphModel>
  </diagram>
</mxfile>
